<svg id="Layer_2" data-name="Layer 2" xmlns="http://www.w3.org/2000/svg" xmlns:xlink="http://www.w3.org/1999/xlink" viewBox="0 0 1223.48 821.11"><defs><style>.cls-1{fill:none;}.cls-2{fill:#f3c529;}.cls-3{clip-path:url(#clip-path);}.cls-4{fill:#ff7f10;}.cls-5{fill:#f65e22;}.cls-6{fill:#f5ae34;}.cls-7{fill:#ec5e51;}.cls-8{fill:#fc3d24;}.cls-9{fill:#f99926;}.cls-10{fill:#f1f4ee;}.cls-11{fill:#4678e8;}.cls-12{fill:#ffc729;}.cls-13{fill:#d6d3ce;}.cls-14{fill:#f5f2ea;}.cls-15{fill:#2256dd;}.cls-16{fill:#e2ad29;}.cls-17{fill:#ffd56c;}.cls-18{fill:#e13f18;}</style><clipPath id="clip-path" transform="translate(111.74 -89.13)"><path class="cls-1" d="M866.45,708.1C828.09,772,776.61,833,704.57,862.65c-43.27,17.82-90.91,22.76-137.75,24.08-51,1.43-104.42-1.64-155.37-5.3C359.94,877.73,308,868.91,262.05,847c-92.43-44.13-133.16-129-151.43-219.66-7-34.68-10.28-70.08-8.35-105.34,3.17-57.77,21-115.79,56.21-163.94,36.24-49.61,94.28-82.35,152.42-106.13,13.22-5.41,26.64-10.4,40.18-15.07,76.08-26.23,156-43.72,228.3-78,32.46-15.39,63.56-35.94,98.45-46.18a208,208,0,0,1,107.95-2.43c121.68,30.33,168.72,156.34,173,261.39C963.46,488.72,927.92,605.72,866.45,708.1Z"/></clipPath></defs><title>avatar with bg</title><path class="cls-2" d="M866.45,708.06C828.09,771.94,776.61,833,704.57,862.61c-43.27,17.81-90.91,22.75-137.75,24.07-51,1.44-104.42-1.64-155.37-5.3-51.51-3.7-103.47-12.51-149.4-34.45C169.62,802.79,128.89,718,110.62,627.27c-7-34.67-10.28-70.06-8.35-105.33,3.17-57.76,21-115.78,56.21-163.92,36.24-49.61,94.28-82.35,152.42-106.13,13.22-5.41,26.64-10.4,40.18-15.07,76.08-26.22,156-43.72,228.3-78,32.46-15.38,63.56-35.93,98.45-46.17a208,208,0,0,1,107.95-2.43c121.68,30.33,168.72,156.33,173,261.37C963.46,488.7,927.92,605.69,866.45,708.06Z" transform="translate(111.74 -89.13)"/><g class="cls-3"><path class="cls-4" d="M1111.74,848a132.78,132.78,0,0,0-61.07-7.62c-24.86,2.58-47.6,11.87-69.39,23.32-34,17.86-70.62,24.33-108.21,25.79-25.22,1-48.56-5.22-67-24.65-17.25-18.14-35.19-35.63-52.94-53.28-13.16-13.1-25.88-26.75-39.93-38.82C686,749.43,654.37,738,619,747.27c-22.73,6-44.52,16-66.17,25.49-6.57,2.88-12.22,9.36-16.67,15.39-14.58,19.79-11.45,37.82,8.38,52.11,13.74,9.91,28.52,18.58,41.26,29.63,14.63,12.67,28.53,26.29,41.9,40.35H649.3c-7.42-9.87-16.32-18.79-25.6-27.44-15.06-14-30.52-27.65-45.27-42a83.46,83.46,0,0,1-14.66-19.13c-8.54-15.39-4-31.48,11.82-39,27.15-12.92,55.61-18.56,85.62-11.35,24.46,5.88,43.71,20.46,61,37.74,22.25,22.29,44.75,44.49,65.15,68.45,17.62,20.7,39.14,27.84,64.49,25.34,49.69-4.9,99.06-11.66,144.57-34.53,38.06-19.12,76.59-20.29,115.36-9.88Z" transform="translate(111.74 -89.13)"/><path class="cls-5" d="M508.47,859.48c-9-19.14-23.58-30.18-42.92-36.21-6.53-2-13-4.3-19.61-6-50.16-13-100.32-26-150.56-38.7a79.74,79.74,0,0,0-22.64-2.72c-54.24,2.4-102.24,21.36-142.11,58.45-14.94,13.89-26.63,31.29-40.14,46.79A81.56,81.56,0,0,0,74.2,910.24H94c4.94-10.48,11.88-19.94,18.57-29.64,35-50.74,83.56-79.86,143.19-90.55a109.81,109.81,0,0,1,40.77.48c35.77,7.42,71.18,16.65,106.64,25.52,33.67,8.41,63,24.05,85,52.13a118.76,118.76,0,0,0,17,17.18q14.64,12.42,29.24,24.88h17C534.45,895.65,518.27,880.31,508.47,859.48Z" transform="translate(111.74 -89.13)"/><path class="cls-6" d="M1017.28,110.37c-6.81,7.91-14.79,14.89-22.82,21.6-9.29,7.76-19.86,14-28.73,22.21-19,17.47-38.18,34.86-55.44,54-14,15.56-10.21,28.49,9.11,37.11a162.27,162.27,0,0,0,30.9,10.16c58.54,13,108.29-2,148-48.1,4.74-5.49,9.2-11.13,13.44-16.89V122.15c-9.31,16.82-18.57,33.67-28.26,50.27-9.51,16.27-21.73,30.5-38.74,39.09a60.3,60.3,0,0,1-24,6c-7.89.34-10.81-5.25-7.29-12.45a73.24,73.24,0,0,1,11-15.85c11.49-13,23.69-25.43,35.09-38.53,16.66-19.14,22.6-40,18.81-61.57h-48.64A63,63,0,0,1,1017.28,110.37Z" transform="translate(111.74 -89.13)"/><path class="cls-6" d="M1111.74,332.6c-10.19,1.55-20.44,2.77-30.68,3.91-32.74,3.65-65.34,7.57-98.58,4.75-52.11-4.41-99.62-21.06-143.79-48.65-24.81-15.49-39.8-37.11-43.69-66.48-1.54-11.63-4.22-23.11-6.15-34.69-4.42-26.53-6.45-53.14.23-79.59a154.38,154.38,0,0,1,7.69-22.72h-15a181.07,181.07,0,0,0-7.23,18.21c-11.86,35.53-14,72.28-12,109.18,2,35.67,17.64,64.53,48.81,83.24a327.12,327.12,0,0,0,35.51,18.07C897,340.16,949.08,354,1004.37,353.78c36.19-.17,71.85-4.92,107.37-11Z" transform="translate(111.74 -89.13)"/><path class="cls-6" d="M7,92.35c4.72,37.2-3.19,72.51-23.39,104.41s-51,47.27-86.77,53.53l-8.53,1.49v7.9q8.17-1.46,16.34-2.89C-29.3,245.2,6.11,202,15.78,140.61c2.65-16.86,2.65-34.15,2.33-51.48H6.49C6.64,90.2,6.82,91.27,7,92.35Z" transform="translate(111.74 -89.13)"/><path class="cls-4" d="M93.83,89.13H73.63c-.32,4.54-.47,9.18-.42,14,.24,23.39-2.36,46.88-4.79,70.21C66.2,194.71,62.28,216,48.48,233.6c-32.13,40.93-72.94,65-126,66.09q-17.12.36-34.22,1.06v16.19q17.89,1.77,35.94,4.87c33.61,5.8,66.46,4.78,98.67-7.48,9.4-3.58,19.21-6,28.73-9.32,17.19-5.9,33.08-3.73,48.48,6,8.47,5.37,17.43,10.37,26.81,13.78,24.26,8.82,49.15-.63,59-23.39,4.53-10.45,6.76-22.58,7.07-34,.49-17.87-9.43-25.67-27.07-23.88-5.2.53-10.34,1.64-15.54,2.26-23.16,2.76-34.49-4.12-42.65-26.31a157.56,157.56,0,0,1-6.11-21c-7.68-35.42-9.51-71.25-7.9-107.44C93.73,90.42,93.79,89.78,93.83,89.13Z" transform="translate(111.74 -89.13)"/><path class="cls-7" d="M36.93,89.13c-.82,24.47-2.85,48.83-9.34,72.69C10.32,225.3-34.73,262.51-99.8,270.59l-11.94,1.52V285q11.28-.88,22.57-1.71c77.71-5.78,132.05-59.51,139.63-137.18,1.85-19,3.41-38,5.19-56.93Z" transform="translate(111.74 -89.13)"/><path class="cls-8" d="M627.75,89.13c-.34,3.93-.62,7.89-.77,11.9-.5,13.43-4,27.22-8.62,39.91-6.79,18.54-18.26,22-35.24,12.42a165,165,0,0,1-50.5-44.4,81.2,81.2,0,0,1-11.28-19.83H481.91c4.2,14.73,12.92,27.6,25.8,38.92,30.29,26.61,61.73,51.91,92.7,77.74a29.15,29.15,0,0,0,5,3.38c9.7,5.14,16.78,3.46,22.45-6.17a102.29,102.29,0,0,0,7.89-17.64c10.06-28.2,12.61-57.4,12.16-87.21q-.06-4.55,0-9Z" transform="translate(111.74 -89.13)"/><path class="cls-6" d="M239.17,89.13c-6.89,8.84-13.44,18-19.56,27.47-5,7.8-10.3,15.49-16.06,22.74a103.24,103.24,0,0,1-15,15.72c-20.95,17.25-40,12.61-51.3-12.06-6.65-14.54-11.07-34.19-11.75-53.87H109.9c-1.06,16.89.64,33.79,4,50.52,3.11,15.3,7.42,30.69,13.72,44.91,7.84,17.69,22.24,23.27,40.92,18.88,19.44-4.57,33.87-16.38,44.86-32.6a192.89,192.89,0,0,0,14.68-25.06,255.63,255.63,0,0,1,36.57-56.65Z" transform="translate(111.74 -89.13)"/><path class="cls-6" d="M556.3,89.13c4.38,9.21,13,16.08,23.12,20.91s17.18,1.45,20.94-9.05A71.07,71.07,0,0,0,603,89.13Z" transform="translate(111.74 -89.13)"/><path class="cls-7" d="M696,89.13a73.16,73.16,0,0,0,2.31,7.24c7,18.51,19.16,21.19,32.54,7a112.08,112.08,0,0,0,10.51-13.24l.66-1Z" transform="translate(111.74 -89.13)"/><path class="cls-8" d="M934.39,448.64c51.44-8.88,102.76-18.65,154.42-26.05a200.61,200.61,0,0,1,22.93-1.85V416c-21.43,1.61-42.73,5.31-64.08,8.36-37.73,5.39-75.68,9.24-113.53,13.77-21.48,2.57-43.93,2.18-62.56,15.36-13.74,9.72-28.65,14.16-45,15.41a147.81,147.81,0,0,0-22.67,3.29c-24.07,5.67-48.4,8.42-73.07,6.82-19.6-1.28-32.55,6.6-41.31,24.67-16.62,34.27-40.49,63.13-69,88.24-23.65,20.84-51,35.32-79.61,47.56-27.69,11.85-53.28,26.63-74.57,48.42A79.57,79.57,0,0,1,451,699.59c-23.39,14.38-46.83,14.08-66.7-.87C364.05,683.53,349,664.16,341,640.05c-7.74-23.4-14.47-47.15-21.14-70.89-12.32-43.9-6.41-84.72,20.25-122.34a303,303,0,0,0,22.71-38.65c6-11.83,11.43-24.19,15-36.91,5.35-18.84-3.49-34.54-22.24-39.38a71.14,71.14,0,0,0-28.34-.91c-19.13,3.07-31.54,16.8-43.13,31.1-13,16-24.42,33.56-39.18,47.64-16.53,15.76-35.47,29.19-54.32,42.22-46.06,31.84-76.45,97.4-42.46,161.67a97.39,97.39,0,0,1,8.63,25.14c3.19,15.08-5.48,30.25-19.06,35.42-13.92,5.29-27.79.45-35.24-14.87A89.24,89.24,0,0,1,94.3,628c-2.07-25.74-7.63-50.07-26.12-68.88C49,539.58,29.8,519.56,8.17,503c-36.12-27.72-76.83-44.87-119.91-56.26v8.24c62.8,15,116.88,44.58,156.27,98.39,15.6,21.31,26.19,44.38,29.66,70.8,2.53,19.25,5.47,38.51,15.1,55.92,8.52,15.4,21.22,22.61,38.79,21.31,44.71-3.31,67.24-39.2,50.51-80.68-3.63-9-7.85-17.8-11.05-26.95-3.73-10.68-7.14-21.53-9.82-32.51-9.5-38.85.24-73,32.08-96.39,38.63-28.4,74.75-58.59,104-97,6.48-8.52,17-15.34,27.09-19.39,25.4-10.21,45.11,7.14,39.66,34a99.11,99.11,0,0,1-8,24.1c-7.53,15.19-15.39,30.31-24.42,44.63C307.68,483.5,302,518.55,307.38,555.89c3.13,21.61,7.8,43.05,9.94,64.75,4.52,46,32.59,74.38,69.5,96.06,7.26,4.27,16.75,5.71,25.38,6.45,27.11,2.35,49.28-9.92,69.24-26.56,20.53-17.12,41.55-33.46,65.75-45,42.69-20.28,80-48.09,114.56-80.16a243.58,243.58,0,0,1,39.47-29.85c21.77-13.11,39.76-6,49,17.94,2.61,6.74,4.8,14,5.38,21.1,1.18,14.49,2.22,29.15,1.31,43.6-1.2,19,2.36,36.42,12.81,52,16.84,25.18,33.34,50.68,51.82,74.62,9.19,11.89,21.63,21.79,34,30.52,30.12,21.22,59.27,12.2,81.35-11,13.38-14,16.86-30.52,8.08-48a205,205,0,0,0-21-33.92C886.34,640,872.69,583,865.3,523.66c-2-16.07,3.37-30,14.06-42.46C894.18,464,912,452.5,934.39,448.64Zm-26.26,246.7a124.25,124.25,0,0,1,14.33,27.91c9.72,28.35-9.55,53.87-39.28,53.08-16.68-.35-30.52-7.85-41.83-19.21-24.16-24.29-43.52-52.31-55.22-84.61-4.07-11.22-4.27-24.85-2.7-36.91A282.18,282.18,0,0,1,796,581.34c3.49-10.22,10.71-20,18.45-27.72,10.47-10.46,20.32-8.58,27.47,4.45a261.46,261.46,0,0,1,16.8,37.55C871.28,630.85,887.41,664.18,908.13,695.34Z" transform="translate(111.74 -89.13)"/><path class="cls-6" d="M1111.74,383.18q-38.27,5.1-76.55,10.06c-28.43,3.66-57.06,5-85.31-.41q-63.25-12.12-126.09-26.46c-26-6-49.1-4.51-69.07,15.84-13.51,13.77-30.91,15.82-48.19,9.2C693.91,386.58,681,380.48,670.69,372c-20.54-16.87-39.52-35.66-59-53.88-22.12-20.74-44.64-41-71.12-56-22.7-12.93-46.6-18.4-73.05-14.57a487.86,487.86,0,0,1-69.64,5.3c-20.4,0-40.77-4-61.21-5.47-40.89-2.83-63.37,9.81-79.45,40.22-7.94,15-15.92,30-23.79,45-14.87,28.46-37.11,48.06-67.17,59.63-29.28,11.27-58,24-86.87,36.39-15.68,6.74-31.63,8.94-48.35,5.31-49.36-10.72-94.17-32.07-137.23-58.08q-2.76-1.66-5.6-3.26v26.7c42.66,18.3,85.79,35.55,127.94,55,38.4,17.7,72,12.25,104.92-12.68,14.7-11.13,30.65-21.31,47.39-28.85,36.9-16.62,63.64-42.91,82.89-78.23,7.31-13.41,16.4-26,25.81-38C288,282.62,302.4,272.86,320,271.57a290.63,290.63,0,0,1,50.39,1.21c29.28,3,58.59,6.73,87.72.9,44.73-9,83.83,1.92,117.7,31.84,21.15,18.69,41.57,38.23,61.92,57.81,21.27,20.46,45,37,73.4,45.16,11,3.16,22.83,4.26,34.29,4.31,14.19.06,24.36-9.55,34.47-18.3,14.08-12.18,30.55-16.18,48.45-13.21,23,3.81,45.82,8.27,68.65,12.87,43.16,8.7,86.51,13.95,130.53,7.86,28.09-3.88,56.1-8.51,84.24-11.93Z" transform="translate(111.74 -89.13)"/><path class="cls-5" d="M322.77,843.92c-37.34-14-72.38-8.9-103.45,15.85C206.89,869.68,195,881.64,186.59,895c-3.17,5-6.3,10.1-9.34,15.22h22.32C211.2,886.73,228,867.66,253.79,857c11.59-4.8,23.29-6.12,35.26-2,12.94,4.49,15.86,14.44,6.18,24-7.1,7-15.53,12.76-23.78,18.46a201.82,201.82,0,0,0-16.53,12.78h34.65c1.65-1.17,3.32-2.33,5-3.47,5.7-3.8,11.67-7.22,17.35-11,6-4.06,12.23-7.94,17.66-12.71C347.37,867.4,344.71,852.15,322.77,843.92Z" transform="translate(111.74 -89.13)"/><path class="cls-5" d="M1111.74,874.1c-33.73-11.26-67.62-11.29-102.43,2.16-25.41,9.82-51.57,17.91-77.83,25.19-12.89,3.57-26,6.33-39.22,8.79H926q52.74-14.75,105.82-28.16a116.68,116.68,0,0,1,80,8.86Z" transform="translate(111.74 -89.13)"/><path class="cls-5" d="M720.68,846.63c-9.52-10.91-20.34-20.74-31.13-30.43-23.16-20.79-50.95-24.61-80.36-20.33-17.88,2.6-23.65,14.89-15.23,31a50.09,50.09,0,0,0,7.55,10.93c9.63,10.3,19,20.94,29.55,30.28,14.58,13,27.78,26.76,38.54,42.21H773.55C756.17,888.83,738.8,867.39,720.68,846.63Z" transform="translate(111.74 -89.13)"/><path class="cls-8" d="M1111.74,370.35c-20.37,3.32-40.76,6.43-61.25,8.59-27.49,2.9-55.59,4.42-83,2.1-42-3.55-82.9-14.72-123.29-27.19q-40.87-12.63-82.1-24.11c-13.37-3.74-24.62.32-32.77,12-1.62,2.32-3.26,4.64-5.06,6.81-9.47,11.38-18.5,13.9-32.09,8.24a74.91,74.91,0,0,1-16.88-9.29c-13.1-10.06-26.09-20.33-38.44-31.29-25.65-22.76-50.86-46-76.25-69.09-33.79-30.69-72.08-43.48-117.86-33.71-27.95,6-56.58,5.78-85.2,1.43a446.21,446.21,0,0,0-61.17-5.17c-37.18-.5-56.17,13.86-68.31,49.42-5.74,16.83-10.22,34.14-16.85,50.59-10.35,25.7-29.24,42.59-56.7,47.75A242.14,242.14,0,0,1,110.23,362c-21.86,0-43.34,1.08-64.59,6.85-25.76,7-51,5.13-75.4-6.41-11.28-5.34-22.9-10-34.35-15a252.48,252.48,0,0,0-47.63-15.38V347.5a172.89,172.89,0,0,1,33.12,17.26C-60,377.19-39.55,387.34-19,396.44c29,12.85,58.78,15.48,89,2.13,9.45-4.18,20.11-5.56,30.18-8.32,23.63-6.48,47.8-11.48,70.62-20.13,12.61-4.78,24.86-14,33.77-24.29,10.36-11.95,17.47-27,24.9-41.22,6.32-12.14,10.64-25.33,16.65-37.66,10.26-21,27.15-33.17,50.19-37.7,21.05-4.15,41.76-1.45,62.38,1.61,27.7,4.09,55.33,5.18,82.78-.4,44.48-9,84.86-1.62,119.7,28.74,27.06,23.58,53.47,47.91,80.49,71.53,14.86,13,29.42,26.67,45.83,37.41,23.93,15.66,37.66,13.31,57.85-7,10.71-10.78,22.85-16.37,37.91-14.63a201.68,201.68,0,0,1,23.72,4c39,9.37,77.86,19.71,117.07,28.3,32.21,7.06,64.79,11.91,98.08,6.92,21.81-3.26,43.89-4.77,65.73-7.85q12-1.68,23.92-3.48Z" transform="translate(111.74 -89.13)"/><path class="cls-7" d="M401.76,862.16c-19.35-16.16-40.53-27.71-64.64-33.9-21.43-5.5-43.21-11-65.44-7.78-42.63,6.24-77.09,27.28-102.64,62.18a288.37,288.37,0,0,0-18,27.58h9.45a236.61,236.61,0,0,1,22.84-32.76c44.74-54,104.62-65.26,166-37.08,12,5.51,23.09,13.3,23.41,28.23.35,15.66-11.19,23.39-23.42,29.53-8.72,4.37-17.84,7.93-26.67,12.08h58.72c6.06-8.21,15.45-11.76,25.91-11.72,13.87.06,28.53.16,41.47,4.45q10,3.33,19.53,7.27H483.2c-12.41-7-25.07-13.7-37.78-20.29C430.15,882,414.92,873.14,401.76,862.16Z" transform="translate(111.74 -89.13)"/><path class="cls-4" d="M-111.74,592.88v64.19q.7-.06,1.41-.06c7,.07,11.35,4.62,11,11.47-.36,6.66-5.77,12.35-12.39,13.61v60c43.89-7.16,73-40.31,73.14-81.37C-38.4,614.25-71.79,586-111.74,592.88Z" transform="translate(111.74 -89.13)"/><path class="cls-6" d="M446.53,852.61c-9.66-7.68-20.52-15.12-32.06-18.9-30.1-9.87-60.68-18.5-91.48-25.93-17-4.1-35.27-8.41-52.25-6.41C199.5,809.76,150,849.5,116.36,910.24h19.51c10.57-19.92,25-38.31,42.89-55.19,39-36.85,85.9-52,140.2-39.95,36.42,8.11,71.76,17.89,102.75,39.77,26.35,18.62,52.42,37.7,79.39,55.37h16.8Q482.49,881.08,446.53,852.61Z" transform="translate(111.74 -89.13)"/><path class="cls-5" d="M1111.74,250.59c-1.31,1.23-2.61,2.47-3.93,3.68a145.79,145.79,0,0,0-20.07,22.56c-6.73,9.48-4.27,17,7.07,18.66a120.17,120.17,0,0,0,16.93,1.21Z" transform="translate(111.74 -89.13)"/><path class="cls-5" d="M-34.19,109.44c8.8,35.68-10.59,82.14-42.88,99.12a261.22,261.22,0,0,1-34.67,15.16v16.46q11.3-2.91,22.55-6c30.77-8.49,53.36-27.63,67.22-56.67,13.72-28.72,17.86-58.23,11.61-88.34H-43A69.8,69.8,0,0,1-34.19,109.44Z" transform="translate(111.74 -89.13)"/><path class="cls-7" d="M149.41,89.13a54.91,54.91,0,0,0,1,8.83c5.53,25.22,22.67,31.93,40.39,13.51,7-7.26,13.78-14.74,20.44-22.34Z" transform="translate(111.74 -89.13)"/><path class="cls-4" d="M-111.74,192c16-6.22,28.54-17.58,38.95-31.54,14.87-19.93,20-41.91,12.27-67.43-.52-1.19-1-2.53-1.6-3.94h-49.62Z" transform="translate(111.74 -89.13)"/><path class="cls-6" d="M-37.83,833.15c11.3-13,23.46-24.69,39.07-30.85,6.37-2.52,12.75-3.64,17.29,1.12s3.46,11.91.33,18.2C11,837.44,3.27,853.49-6.26,868.42c-4.66,7.3-12.64,14-20.14,18-17,9.1-30.77-1.74-27.52-20.62C-51.85,853.82-46.15,843-37.83,833.15Z" transform="translate(111.74 -89.13)"/><path class="cls-8" d="M1028.14,295.47c8.06-6,16.65-11.34,25-17a383,383,0,0,0,58.61-48.18V216c-22.8,26-50,46.48-84.16,57.88-30,10-61,9.18-92,7.34-7.63-.46-15.32-1.19-22.9-.66-6.45.45-16.25-1-16.86,7.49-.35,4.72,6.48,11.45,11.65,14.85C932.36,319.24,960.73,325,989.87,327c40.27,2.65,80.43-.19,120.38-5.14l1.49-.2v-9.89c-19.42,1.07-39,.59-58.5.44h0c-14-.14-19.59-1.25-22.54-2.31l-.27-.1c-.48-.18-.92-.38-1.36-.57l-1-.47C1021.08,305.24,1021,300.81,1028.14,295.47Z" transform="translate(111.74 -89.13)"/><path class="cls-9" d="M930.66,89.13c-16.73,12.55-33.57,25-50.62,37.1a91.52,91.52,0,0,1-22.25,11.93c-16.19,5.68-28.95-2.15-32.47-19.06a56.14,56.14,0,0,1,2-30H813.36a120.29,120.29,0,0,0-8.5,31.29,84.08,84.08,0,0,0,.86,22.39c1.33,6.5,3.13,14.48,6.38,21.82,10.5,23.67,27.7,29.4,50.19,16.86a170,170,0,0,0,33-24.28,480.49,480.49,0,0,1,71.5-55.73,107.43,107.43,0,0,0,15.9-12.35Z" transform="translate(111.74 -89.13)"/><path class="cls-4" d="M1111.74,354.5a646.36,646.36,0,0,1-95.61,10.34c-21.59.71-43.29-1.9-65-2.59a4.91,4.91,0,0,0-2.47.77c-1.69,1.14-5.68,4.82,1.45,7.5a307.88,307.88,0,0,0,90,2c23.9-2.88,47.83-5.89,71.58-9.79Z" transform="translate(111.74 -89.13)"/><path class="cls-9" d="M766.29,89.13H751.55c-7.67,13.39-15.74,26.56-23.74,39.77a32.78,32.78,0,0,1-6.22,7.38c-8.27,7.42-16.79,6.62-21.22-4.34-5.61-13.89-11.38-28.22-14.45-42.81H666.18c.1,1.7.19,3.4.34,5.12,3,34.25,1.82,67.79-5.13,101.43-3.26,15.79-3.74,32.14-6,48.16-1.27,9.07-1.29,20-11.51,23.78-9.27,3.48-17.15-2.67-23.87-8.57-9.4-8.23-18.73-16.64-27.31-25.72a393.74,393.74,0,0,0-118.93-86.12,407.59,407.59,0,0,1-36.26-19.35c-16.64-10.07-19.77-19.15-13.37-37.8l.34-.93H299.09c-1,.76-1.93,1.52-2.88,2.3a102.09,102.09,0,0,0-32.82,48.65c-6.29,20.43-.1,32,20.26,37.74,10.83,3,22,4.93,33,7.24,39.15,8.18,78.28,14.52,118.44,6.22,49.89-10.3,91.78,5.86,128,40.47q39,37.2,79.37,72.9A116,116,0,0,0,672,323.14c13.47,6,23.22.58,26.13-13.85,1.89-9.36,1.94-19.27,1.57-28.88-.53-14.13-2.57-28.21-3.14-42.34a27.27,27.27,0,0,1,1-9.84c1.74-3.59,6.32-7.89,11.77-.1a29.66,29.66,0,0,1,4.36,15.5c.12,23.17,11.42,39.79,29.39,52.92,45.62,33.37,99.11,47.24,152.16,62.1,3.2.9,7.49-2.16,11.27-3.39a17.43,17.43,0,0,0-7.73-4.81c-31.21-11.73-63-22.12-93.45-35.61-34.77-15.41-54.26-44.45-62.79-81.31-5.71-24.66-3.11-49.05,1.58-73.46C749,135.07,755.91,111.19,766.29,89.13Z" transform="translate(111.74 -89.13)"/><path class="cls-4" d="M1111.74,401.81q-20,1.79-40,3.67c-36,3.38-71.94,10.06-107.85,9.69-33.07-.34-66.21-7.31-99-12.89-28.67-4.88-55-4.79-77.33,18-10.68,10.86-25.79,13.53-40.56,12.2-50-4.49-92.87-24.53-127.9-61.17-12.54-13.13-25.2-26.27-38.89-38.14-27-23.43-56.78-40.18-94.52-33.62-6.75,1.17-13.48,3.08-20.25,3.27-15.58.43-31.33,1.37-46.73-.4-21.92-2.52-43.52-7.83-65.4-10.94-27.43-3.91-51.3,4.16-69.22,25.79-10.78,13-20.37,27.13-29.58,41.35-16.82,26-37.74,47.22-65.1,61.9A306.26,306.26,0,0,0,124.9,467.3C108,483.06,88.2,494.81,64,491.34a119.13,119.13,0,0,1-35.28-11.43c-45.85-22.69-92.28-43.86-140.42-61v15.76c53.18,15.56,103,39,148.6,72.41,11,8.06,23.13,14.76,35.32,20.92,13.26,6.71,25.81,4.8,36.14-6.76,5.11-5.72,10.87-11,15.23-17.23,22.81-32.68,51.33-58.81,85.47-79.22,21.78-13,38.15-32,52.8-52.66a423.48,423.48,0,0,1,30.65-39c26.27-29.12,70.46-24.54,94.36-8.48,14.32,9.62,19.19,21.36,13.28,37.67a234.53,234.53,0,0,1-18.24,38.18c-12.06,20.56-25.39,40.37-38,60.62-14.07,22.61-22.35,47.2-17.88,73.9,7.87,47,32.63,86.61,57.61,125.91a36.89,36.89,0,0,0,4.84,5.42c17.09,17.88,35.95,19.34,54.16,2.7,16.78-15.32,35.92-25.81,57.19-32.89q11.46-3.82,22.89-7.73c24.84-8.44,49.5-17.58,70.81-33.31,42-31,72.64-68.62,70.2-125.33-.82-19,6.31-24.56,25.16-23.37,3.19.2,6.34,1.11,9.54,1.39,22.38,2,44.75,4.57,67.18,5.57A84.55,84.55,0,0,0,820.09,437c13.17-9.5,28-13.71,44.38-12.91,21.31,1.05,42.63,1.65,63.94,2.48,47.32,1.84,93.67-6.22,140.19-13.3,14.35-2.19,28.73-4.35,43.14-5.72ZM617.52,548.26c-22.38,31.08-53.91,48.49-90.11,56.65-20.13,4.54-40.72,7-61.26,9.75h0c-22.94,3.06-32.08,1.71-40.53.43-31.94-5.94-56.18-24.15-73.44-54.47-16.29-28.6-17.46-58.38-1.31-86.78,19.61-34.46,43-66.46,71.65-94.16,20.35-19.7,44-24,70.24-14.08,9.76,3.7,19.71,7.4,28.67,12.66,23.63,13.84,47.22,27.83,69.95,43.08,23.61,15.86,40,37.34,43.77,66.78C638.06,510.78,630.39,530.38,617.52,548.26Z" transform="translate(111.74 -89.13)"/><path class="cls-6" d="M595.32,454.76c-29.59-29.52-65.17-49.92-104.5-62.85-24.53-8.06-48-2.15-67.77,14.68A255.16,255.16,0,0,0,367.17,473c-19.29,33.32-13.33,66.71,16.12,91.2,8.17,6.8,18.26,11.89,28.25,15.73a145.29,145.29,0,0,0,36.61,8.61h0l.19,0c4.31.46,8.67.76,13.1.93,7.11.36,16.29.58,26.53.18,2.23,0,4.53,0,6.83-.21q7.24-.54,14.35-1.49l2.28-.3c1.62-.22,3-.44,4.19-.67,24.5-4,47.48-12.47,67.3-29.29,18.15-15.42,30.56-34.26,30.64-59.33C613.61,481.25,607,466.41,595.32,454.76Zm-38.73,94.87c-11.34,7-25.39,12-43.68,14.63-2.56.4-5.76.79-9.72,1.16h-.05l-3.17.25c-.79.06-1.59.14-2.37.19-3.23.22-6.58.37-10,.47h0c-.7,0-2,.06-3.73.08-2,0-4.08,0-6.2,0l-.47-.09c-14.3-.4-40.54-2.89-67-15.28-1-.44-1.93-.9-2.89-1.39l-.22-.11h0c-2.13-1.1-4.21-2.31-6.24-3.61l-.34-.21h0a93.93,93.93,0,0,1-8.09-5.92c-17-14-23.15-32.9-14.32-53.3,15.41-35.63,40.66-61.79,78.91-72.81,13.59-3.92,27.3-2.1,40.28,2.82,24.17,9.17,47.25,20.73,67.07,37.65C599.51,484.22,596,525.44,556.59,549.63Z" transform="translate(111.74 -89.13)"/><path class="cls-9" d="M545.23,464.5a197.37,197.37,0,0,0-49.94-28.64c-37.55-14.57-87,11.18-99.64,49.83-5.4,16.44-.36,31.55,14.52,40.87,6.06,3.8,12.84,7.22,19.75,8.73l.1,0,1.35.38.64.18,1,.28.78.21,1.05.28.93.24,1,.26,1.09.27,1.07.26,1.18.28,1.12.26,1.28.29,1.17.26,1.38.29,1.19.25,1.49.3,1.22.24,1.59.3,1.25.23,1.66.29,1.3.22,1.73.29,1.32.2,1.81.27,1.35.19,1.89.25,1.34.17,2,.24,1.25.13,2.16.23h0c20.12,2,44.15,1.33,65.46-7.21C568.57,521.94,573.71,486.9,545.23,464.5Zm-32.32,51.85c-1.11.39-2.24.73-3.38,1-1.93.52-3.81,1-5.67,1.35-3.35.67-6.77,1.19-10.26,1.66a112.29,112.29,0,0,1-25.32,0c-10.46-1.53-21-3-31.17-5.85-23.87-6.66-29.2-26.62-13.26-45.69,15.33-18.33,42.87-26.23,64.44-16.4,12.21,5.56,24.26,13,34,22.23C538.23,489.73,533.58,509.14,512.91,516.35Z" transform="translate(111.74 -89.13)"/><path class="cls-7" d="M1111.74,809.55c-26.92-15.37-51.63-15.81-68.35-12.94a45.25,45.25,0,0,0-7.82,1.69A438.53,438.53,0,0,0,984.4,816c-17.06,7.12-33.19,16.51-50.1,24-17.21,7.69-35.63,12.3-54,6.07a176.47,176.47,0,0,1-40.82-19.86c-31.27-20.84-54.27-50.39-78-79-19.44-23.42-40.66-44.84-66.56-61.23-16-10.11-33.18-15.19-51.74-11.77a128,128,0,0,0-33.15,10.71c-25.61,12.65-50.73,26.34-75.8,40.07C517,734.47,500,744.59,483,754.63c-43.76,25.84-87.54,22.35-131-.32-15.34-8-30.11-17.17-44.8-26.36-21.72-13.59-44.45-16.44-68-6.39-47.73,20.39-95.37,41-142.74,62.27-18,8.09-31.66,21.74-42.07,38.9-6,10-12.86,19.81-21,28.09a89.33,89.33,0,0,0-23.69,42.9,166.32,166.32,0,0,1-4.5,16.37l-.06.15H32.38q.59-2.64,1.2-5.27c3.53-15.23,9.76-28.94,20.34-40.73a255.36,255.36,0,0,0,18.52-24A176.19,176.19,0,0,1,122.12,793c32.48-20.82,68.12-34.55,104.09-47.69,30.89-11.27,60.53-10.32,89.4,6.55a245.7,245.7,0,0,0,107.33,33.39c24,1.78,46.18-1.77,66.88-15S531.45,744,553.2,732.7a686.21,686.21,0,0,1,66-29.58c29.63-11.63,57.51-6,83.69,11.51,20.34,13.57,37.61,30.41,53.51,48.81,24.6,28.45,49.1,57.11,80,78.93A111,111,0,0,0,870.74,859c25.35,6.81,50.3,2.42,74.06-8.32,10.62-4.8,21-10.25,31.42-15.43,22.09-10.93,44.64-20.39,69.6-22.42,16.5-1.6,56.62,4.4,65.92,10.66Z" transform="translate(111.74 -89.13)"/><path class="cls-7" d="M-89.06,881.94c-5.28-27.24,3.64-49.51,27.69-64.65,3.07-1.93,6.08-4,9-6.07,16.8-11.85,34-23.2,50.26-35.74,21.7-16.71,31.17-40,30.52-67-.54-22.59-1.77-45.28-4.71-67.66-7.4-56.33-36.89-98-87.63-122.6a132.83,132.83,0,0,0-47.85-13.21v23.84a87.68,87.68,0,0,1,16,1.15c46.3,7.7,76.06,36.09,94.42,78.06C8.83,631.24,9.72,656,9.83,680.73c.17,41.14-19.95,70.78-54,91.52-13.38,8.17-27.66,14.85-41.55,22.16-6,3.18-12.34,6-18.2,9.46a39.15,39.15,0,0,0-7.86,6.11V899.5a87.69,87.69,0,0,0,4.72,7.94c.64,1,1.32,1.87,2,2.8h28.63A64.78,64.78,0,0,1-89.06,881.94Z" transform="translate(111.74 -89.13)"/><path class="cls-9" d="M892,722.87C888.5,713,885,703,879.7,694.08c-12.3-20.78-24.84-41.51-38.87-61.1-8-11.17-17.48-9.26-22.78,3.61a89.16,89.16,0,0,0-3,8.78c-2.06,7.82-5.25,19.22-2,34.76,7.79,27.15,21.67,49.72,45.64,66.12a20.5,20.5,0,0,0,4.44,1.82c8.43,3.15,16.79,3.37,23.79-2.92C893.5,739.18,894.88,731,892,722.87Z" transform="translate(111.74 -89.13)"/><path class="cls-4" d="M1111.74,544.24c-12.65,10.52-28,14.57-44.92,14.41a235.81,235.81,0,0,1-26.38-2.12c-16.61-2-23.65-11.94-20.84-28.75,4.08-24.32,25.87-42.34,54.37-44.89,2.39-.21,4.81,0,7.21,0,7.51.72,20.28,2.6,30.56,8.63V458a157.39,157.39,0,0,0-33.25-.74,222.38,222.38,0,0,0-84.41,25.88c-21.29,11.61-34.61,29.75-37.39,53.49a155.86,155.86,0,0,0,1.89,49.29c9,43.13,39.72,67.17,88.47,44.17,15.13-7.13,31.53-11.8,47.68-16.41q8.71-2.48,17-5.57Z" transform="translate(111.74 -89.13)"/><path class="cls-8" d="M843.84,204.41c-6.78.33-13.93,2.23-18.41,7.36-6.22,7.14-5.33,18-2.44,27.09a79.75,79.75,0,0,0,19.23,31.77c4,4,9,7.79,14.6,7.12,4.42-.52,8-3.74,11.25-6.81,5.48-5.16,11.15-10.62,13.63-17.76,2.67-7.71.87-15.31-1.29-22.87-1.29-4.5-1.93-9.55-4-13.78C871.09,205.84,854.22,203.89,843.84,204.41Z" transform="translate(111.74 -89.13)"/><path class="cls-6" d="M1111.74,828.57c-18.13-6.53-40.55-7.65-54.69-6.66l-1.29.09h-.21c-2.94.27-5.83.79-8.65,1.1-29,3.15-54.9,15.3-80.18,28.79-23.56,12.58-48.29,19.57-75,19.84-24.52.24-47.33-4.29-65.9-21.72-17.94-16.84-35.85-33.72-53.3-51.07-18.32-18.2-35.27-37.85-54.23-55.31-33.4-30.76-71.89-37.81-114.2-20.58-36.65,14.92-72.54,31.39-103.31,57-16.15,13.45-34.78,18.53-55.11,17.15-45.25-3.07-89.11-12.16-130.36-32.06a188.26,188.26,0,0,0-26.95-10.61c-19.22-5.83-38.23-2.75-57,2.85-64.88,19.34-122.56,49.39-160.46,109A38,38,0,0,1,67,871c-10.15,11.3-16.16,24.54-19.34,39.2H59.73A155.48,155.48,0,0,1,83,865.61c35.75-48.4,82.1-78.69,138.52-96.06,33-10.15,64.24-9,96.5,4,48,19.4,98.71,28.42,150.14,33.27,17,1.59,30.33-3.76,41.74-16.81,8.15-9.32,17.12-19.2,27.82-24.74A629.31,629.31,0,0,1,612.58,732c33.45-12.13,65.36-5.52,93.67,15.62,13.18,9.85,25.22,21.38,37,32.95,24.46,24.06,48.41,48.65,72.55,73,21,21.19,47.21,26.6,75.53,24.87,30.51-1.87,58.92-10.81,86.42-24.47,18.59-9.23,38.57-16,58.47-22.1a84.78,84.78,0,0,1,16.36-3c10.14-.84,37.59-1.84,59.16,8Z" transform="translate(111.74 -89.13)"/><path class="cls-6" d="M-111.74,566.3c27.73-4.08,54.15,6.82,73.1,30.66,17.34,21.8,22.18,46.95,20.82,74.16-1.29,25.67-10.95,47-30.16,63.94-15.73,13.83-34,23-54,28.66-3.22.91-6.47,1.73-9.72,2.54v17.5c3.49-1.58,7.3-3.12,11.52-4.62,19.48-6.95,38.26-17.08,55.69-28.37C-22.18,736.3-9.35,714.25-6,687.48a191.87,191.87,0,0,0,.78-31.54c-1.49-35.44-15.29-65.08-42.9-87.57-17.19-14-37.14-21.91-59.28-20.08-1.43.12-2.87.29-4.3.48Z" transform="translate(111.74 -89.13)"/><path class="cls-9" d="M981.83,467.4c28.33-8.87,57-17.14,86.07-23a183.06,183.06,0,0,1,43.84-3.85V430c-35.54,1.25-70,9.14-104.45,16.6-21.18,4.58-42.49,9.22-63,16-34.33,11.34-51.42,36.39-51.17,72.35a250.86,250.86,0,0,0,2.47,32.62c5.7,40.86,19.19,78.42,46.72,110,10.6,12.17,21.05,24.57,30.52,37.64,14.5,20,13.43,36.17-2.8,54.89a134.25,134.25,0,0,1-51.84,36.77c-18.66,7.55-36.9,6.37-54.66-3.2-20.86-11.25-39.15-25.83-53.59-44.63C786,728,762.78,696.44,739.52,664.91c-9.46-12.82-16.42-26.81-18-43.16a57.72,57.72,0,0,0-4.08-15.2c-5.67-14.46-17.3-21.13-31.79-16.17-11.25,3.85-22,9.85-32.17,16.15-24.31,15.05-48.16,30.87-72.22,46.35q-42.67,27.45-85.4,54.82c-11.19,7.13-22.15,14.93-34.07,20.59-35.17,16.68-69.27,15.45-101.17-8.77-8.67-6.59-17.6-12.86-26-19.82-21.1-17.57-37.82-38.42-39.24-67.12-1.93-38.8-3.42-77.7-2.72-116.52.44-24.34,8-47.6,20.84-68.95,6.81-11.38,12.26-23.68,17.41-36a57.4,57.4,0,0,0,4.4-19.92c.43-13-8-19.07-19.78-13.58a66.35,66.35,0,0,0-21,15.82c-24.48,27.75-51.65,52.17-82.72,72.25-6.71,4.33-12.77,9.91-18.43,15.61-13.84,13.91-20.08,30.83-18.88,50.63s7.94,37.94,16.34,55.5c6.28,13.13,13.72,25.69,20,38.82C222.25,650,219,668.46,200.39,687c-16.7,16.66-37.16,26.73-59.54,33.2-41.1,11.89-62.25.55-73.26-40.73-4.77-17.9-7.14-36.43-10.85-54.61-11-53.82-41.48-94.17-86.46-123.68-25.33-16.62-52.91-26.89-82-32.79v16.66c73.52,9.49,137.58,69.15,151,142.88,3.27,17.88,5,36,8,54,2.89,17.53,5.42,35.22,10,52.34,4.08,15.3,13.14,21.94,28.75,20.29a272.69,272.69,0,0,0,49.35-10.32c36.89-11.06,70.4-29.82,103.69-48.78,21.29-12.11,41-10.73,60.87,3.77,18.23,13.31,37.29,25.49,56.14,37.91,35.24,23.23,72.2,26.49,109.83,7.07,21.78-11.25,42.24-25.07,63.68-37,33.76-18.81,67.49-37.75,101.93-55.24,24.24-12.32,47.3-8,68.65,9.32,27.48,22.25,51.45,47.72,73.14,75.57,21.89,28.09,44.55,55.27,74.07,76.07,29.27,20.63,59.09,23.94,90.72,6.94,21.3-11.45,42-24.13,63.76-34.57,4.64-2.23,9.39-4.28,14.21-6.19h0l.45-.16q4.57-1.8,9.23-3.4c3.51-1.33,7.38-2.85,11.59-4.53h0l.06,0,1.48-.59c13.77-5.45,52.64-18.59,72.87,11.1V740.05h0V652.39c-21.72,7.34-42.78,15.7-63.09,26.38-20.64,10.84-41.31,8.75-61.2-2.63-20.83-11.92-37.06-28.38-47.63-50.21a165.94,165.94,0,0,1-16.49-71.64C922.93,504.39,942.88,479.58,981.83,467.4ZM271.3,536.7c-1.24,11.7-2.57,23.84-4.24,35.94-1.27,9.19-3.53,19.21-13.55,22.69-10.17,3.55-17.75-3.37-24.36-9.92-15.26-15.1-25.74-33-29.56-54.46-2-11.35.42-22.13,7.26-31,12-15.58,28.39-25,47.21-29.56,10.49-2.55,16,1.71,17.42,12.93.69,5.39,1,10.85,1.25,16.57A269.32,269.32,0,0,1,271.3,536.7Z" transform="translate(111.74 -89.13)"/><path class="cls-10" d="M420.24,561.2s6-7.05,3.21-27.69S518.38,570,518.38,570l96.3-51.59s-4.13,37,0,57.38-15.82,74.69-15.82,74.69l-56.41,46.78L435.83,658Z" transform="translate(111.74 -89.13)"/><path class="cls-11" d="M645.17,649.17C644.89,721.36,610.35,891,610.35,891H462.17L416.81,645.26l-1.5-8.13L412.52,622c26.84,23.72,68.94,39,116.29,39,46,0,87-14.4,113.92-36.94,1.4,4.41,2.15,10.82,2.37,18.75C645.16,644.83,645.19,647,645.17,649.17Z" transform="translate(111.74 -89.13)"/><path class="cls-12" d="M500,891H136.36S149,800.25,176.78,728.15c15.19-39.43,34.91-73.29,59.56-83.66,25.78-10.85,53-21.33,77.92-30.66,11.14-4.16,21.82-8.1,31.71-11.73l.22-.08.33-.12.06,0,1.5-.55c17.12-6.28,31.76-11.62,42.18-15.66l.13,0c5.84-2.27,10.34-4.12,13.18-5.49a21.42,21.42,0,0,0,5-4.37c-34.75,37.8-9.72,120.29-5.42,133.44C401.19,697.14,433,670.84,439.5,666c6.08-4.45,19.6,8.34,22.67,11.39l.21.21.38.38,0,0c4,4.06,8.11,7.73,9.49,15,2.06,11,17.93,62.37,23.92,73.38S500,891,500,891Z" transform="translate(111.74 -89.13)"/><path class="cls-12" d="M536.63,891H900.27S870,673.84,800.29,644.49s-149.81-56-167.23-64.36a21.42,21.42,0,0,1-5-4.37c34.75,37.8,9.72,120.29,5.42,133.44,1.94-12.06-29.84-38.36-36.37-43.16-6.08-4.45-19.6,8.34-22.67,11.39l-.21.21-.38.38,0,0c-4,4.06-8.11,7.73-9.49,15-2.06,11-19.64,62.67-25.63,73.68S536.63,891,536.63,891Z" transform="translate(111.74 -89.13)"/><path class="cls-13" d="M614.39,520c-.35,4-.79,9.78-1.06,16.33C593.6,558.26,551,584,518,589.86q-3.91.71-7.62,1c-34,2.84-69-28.49-86.33-44.57a63.72,63.72,0,0,0-.18-15.3c17.26,16,52.36,47.59,86.51,44.74q3.71-.32,7.62-1C551.55,568.75,595.16,542.18,614.39,520Z" transform="translate(111.74 -89.13)"/><path class="cls-14" d="M459.52,432c-26,0-47.08-8.26-45.55-53.81,0,0,3.06-14.07,12.23-16.51S488,354,494.07,376.06,485.51,432,459.52,432Z" transform="translate(111.74 -89.13)"/><path class="cls-14" d="M459.52,432c-26,0-47.08-8.26-45.55-53.81,0,0,3.06-14.07,12.23-16.51S488,354,494.07,376.06,485.51,432,459.52,432Zm-61.2-38.3c-.12,1.26-.25,2.78-.41,4.53s-.31,3.57-.48,5.63c0,.05,0,.09,0,.14,0,.37-.06.75-.1,1.14a1.65,1.65,0,0,0,.3-.52,4.27,4.27,0,0,0,.3-1.22l18.19-17.34,5.35-13.15Zm-1.47,17.11c-.71,8.6-1.5,18.89-2.14,29,.7-10.1,1.64-20.65,2.42-28.82.07-.72.13-1.43.2-2.11,0-.36.06-.7.1-1l-.29-.54C397,408.47,396.94,409.63,396.85,410.82Zm-3,43.3c-.34,7.14-.54,13.72-.5,19a10.29,10.29,0,0,0,1.37.1C393.63,471.36,393.51,463.82,393.9,454.12Z" transform="translate(111.74 -89.13)"/><path class="cls-14" d="M632.27,407.33l-1.08.19s-1.19-3.49-3-8.36c-3.75-10.38-10.1-27-13-29.37-1.43-1.16-5.25-1.38-11.52-1.53a34,34,0,0,1,4.16,9.94c1.53,45.55-19.56,53.81-45.55,53.81s-40.66-33.94-34.55-55.95c1.85-6.68,8-10.86,15.89-13.37-2-.35-4-.74-6-1.15-39.91-8-60.44-72.66-66.3-94.58a15.53,15.53,0,0,1-8.54,1.71c-23.93-1.38-31.1,46.78-36.52,72.92-3.34,16.11-17.35,35.62-27.61,48.22a.42.42,0,0,0,0-.07s-1.37-90.12,1.38-94.93c2-3.53,38.05-27.4,60.12-40.7,8-4.84,14.21-8.28,16.23-8.83.89-.24,2.49.24,4.62,1.28,15.92,7.8,61.42,46.87,61.42,46.87s86,60.54,88.74,77.05c.67,4,1,12.86,1.12,24.3C632.34,398.68,632.32,402.9,632.27,407.33Z" transform="translate(111.74 -89.13)"/><path class="cls-11" d="M661.46,373.23c-4.13,1.38-6.88,11-6.88,18.6,0,4.31-2.69,7.93-5,10.25a23.36,23.36,0,0,1-3.33,2.79l-14,2.46-1.08.19s-1.19-3.49-3-8.36c-3.75-10.38-10.1-27-13-29.37-1.43-1.16-5.25-1.38-11.52-1.53-11.54-.28-31.39-.33-60.05-5.57-2-.35-4-.74-6-1.15-39.91-8-60.44-72.66-66.3-94.58-1.22-4.53-1.8-7.23-1.8-7.23a32.63,32.63,0,0,1-9.36-5.62c-6.05-5.48-9.54-14.84,10.37-27.6a147,147,0,0,1,21-10.81c65.35-28.2,146.52,64,158.4,86.68s10.82,48.15,8.07,52.28S665.59,371.85,661.46,373.23Z" transform="translate(111.74 -89.13)"/><path class="cls-14" d="M632.27,407.33c-.27,24.19-1.68,54.8-4.4,77.32-1.32,11-3,20-4.93,25.47-1.48,4.1-4.44,8.66-8.53,13.42-19.1,22.26-62.94,49-96.67,55q-3.91.7-7.62,1c-14.05,1.17-27.94-3.47-40.24-9.9s-23.45-14.78-33.94-23.76c-4.13-3.53-8.15-7.19-12.13-10.89-4.9-4.54-10-8.59-13.8-14.16-4.77-7-7.64-15-10.44-22.94s-6.79-16.09-6.07-24.82l1.26.05c-1.86-.07-.91-17.73-.86-19.06,0-.07,0-.15,0-.23.2-4.1.44-8.39.71-12.72,0-.43.05-.87.09-1.31.7-10.1,1.64-20.65,2.42-28.82.07-.72.13-1.43.2-2.11,0-.36.06-.7.1-1l-.29-.54c.06-.75.12-1.48.18-2.2a1.65,1.65,0,0,0,.3-.52,4.27,4.27,0,0,0,.3-1.22l18.19-17.34,5.35-13.15-23.14,20.79c.2-2.2.32-3.58.35-3.9,10.1-12.4,23.83-31.5,27.44-47.46.06-.26.12-.51.17-.76,5.42-26.14,12.59-74.3,36.52-72.92a15.53,15.53,0,0,0,8.54-1.71c5.86,21.92,26.39,86.59,66.3,94.58,2.05.41,4.06.8,6,1.15-7.9,2.51-14,6.69-15.89,13.37-6.11,22,8.56,55.95,34.55,55.95s47.08-8.26,45.55-53.81a34,34,0,0,0-4.16-9.94c6.27.15,10.09.37,11.52,1.53,2.9,2.34,9.25,19,13,29.37,1.76,4.87,3,8.36,3,8.36Z" transform="translate(111.74 -89.13)"/><path class="cls-15" d="M470.55,226.51a14.19,14.19,0,0,0-1.44-.46c-18.38-4.84-55.15-7.2-81.75,38.49-36.83,63.29-7.05,104.56-11.62,112.13s-8.87,15.13-7.07,21.32c.62,2.15,5.37,6.28,8.82,8.6q.79.54,1.47.93c-.06-5.1,2,0,5.5-2.8,5-4,7.27.62,10.55,4.66a16.47,16.47,0,0,0,1.61,1.25l.23.19c.1.08.19.16.28.22.07-.72.13-1.43.2-2.11,0-.36.06-.7.1-1l-.29-.54c.06-.75.12-1.48.18-2.2a1.65,1.65,0,0,0,.3-.52,4.27,4.27,0,0,0,.3-1.22s0-.08,0-.13h0a42.36,42.36,0,0,0,0-5c0-1.34-.06-2.77,0-4.2a18.09,18.09,0,0,1,.72-4.23c4.74-15.28,23.67-31.59,27.44-47.46.06-.26.12-.51.17-.76,5.42-26.14,12.59-74.3,36.52-72.92a15.53,15.53,0,0,0,8.54-1.71c6.64-3.65,9-12.36,9.69-20.4.13-1.53.2-3,.22-4.48A16.3,16.3,0,0,0,470.55,226.51ZM397.42,404a1.9,1.9,0,0,1-.09-.31s0,0,.06.09a.3.3,0,0,1,0,.08C397.43,403.92,397.42,404,397.42,404Z" transform="translate(111.74 -89.13)"/><path class="cls-2" d="M421.46,372.92l-5.35,13.15L396.24,406l1.19-2.11s0,4.05,0,4c-.86-1.81-5.64-6.09-7.12-8.12L398,394l.37-.33Z" transform="translate(111.74 -89.13)"/><path class="cls-2" d="M456,368.82c17.88,0,38.77,3.33,42.49,16.71,6.11,22-8.56,56-34.55,56s-47.08-8.26-45.55-53.81c0,0,3.06-14.07,12.23-16.51,3.59-1,13.86-2.34,25.38-2.34m0-4h0c-12.48,0-22.83,1.52-26.42,2.48-11.39,3-15,18.85-15.1,19.52l-.08.36v.36c-.72,21.41,3.36,36.39,12.46,45.8,10.52,10.89,26.21,12.14,37.09,12.14s21.12-5.44,28.64-15.33c9.83-12.94,13.76-31.3,9.76-45.69-4.5-16.23-27.68-19.64-46.33-19.64Z" transform="translate(111.74 -89.13)"/><path class="cls-2" d="M574.66,368.82c11.53,0,21.8,1.38,25.4,2.34s6.18,3.63,8.07,6.57a34,34,0,0,1,4.16,9.94c1.53,45.55-19.56,53.81-45.55,53.81s-40.66-33.94-34.55-56c1.85-6.68,8-10.86,15.89-13.37s17.63-3.34,26.58-3.34m0-4h0c-11,0-20.39,1.19-27.79,3.53-10.24,3.26-16.48,8.68-18.54,16.12-4,14.38-.07,32.74,9.77,45.68,7.51,9.89,17.68,15.33,28.64,15.33s26.56-1.25,37.08-12.14c9.11-9.41,13.18-24.39,12.46-45.8v-.36l-.07-.35a38.28,38.28,0,0,0-4.72-11.27c-2.82-4.4-6.33-7.18-10.4-8.26-3.58-1-13.92-2.48-26.42-2.48Z" transform="translate(111.74 -89.13)"/><polygon class="cls-2" points="746.55 311.49 722.88 287.85 725.63 297.63 742.21 317.34 746.55 311.49"/><line class="cls-1" x1="523.57" y1="297.63" x2="509.17" y2="314.74"/><path class="cls-2" d="M530.81,384.92a44.88,44.88,0,0,0-30.95,0v-5.27a56.14,56.14,0,0,1,30.95,0Z" transform="translate(111.74 -89.13)"/><path class="cls-13" d="M422.49,400.41s40.12-14.57,51-11.62a38.06,38.06,0,0,1,17,9.74s-17.94-6.21-30.12-4.13S422.49,400.41,422.49,400.41Z" transform="translate(111.74 -89.13)"/><path class="cls-13" d="M444.47,401.94s17.13,3.55,23.67,3.34c5.72-.18,16.32-3.34,16.32-3.34s-9.1,4.74-16.28,4.74S444.47,401.94,444.47,401.94Z" transform="translate(111.74 -89.13)"/><path class="cls-13" d="M607.73,401.24s-40.12-14.56-51-11.61a38.13,38.13,0,0,0-17.05,9.74s18-6.21,30.12-4.13S607.73,401.24,607.73,401.24Z" transform="translate(111.74 -89.13)"/><path class="cls-13" d="M585.75,402.78s-17.14,3.55-23.67,3.34c-5.73-.18-16.32-3.34-16.32-3.34s9.1,4.74,16.28,4.74S585.75,402.78,585.75,402.78Z" transform="translate(111.74 -89.13)"/><path class="cls-13" d="M489,466.51l20.46-6.71A1.24,1.24,0,0,1,511.1,461v2.34a1.69,1.69,0,0,1-1.56,1.69l-5.44.4Z" transform="translate(111.74 -89.13)"/><path class="cls-13" d="M539.88,466.51l-20.46-6.71a1.24,1.24,0,0,0-1.64,1.18v2.34a1.69,1.69,0,0,0,1.56,1.69l5.44.4Z" transform="translate(111.74 -89.13)"/><path class="cls-13" d="M505,520.64l7.92,1.1a84,84,0,0,0,10.76.2l6.72-.85-3.7,2.22a30,30,0,0,1-17.52-.25Z" transform="translate(111.74 -89.13)"/><path class="cls-13" d="M475.75,498.85a285.54,285.54,0,0,0,79.16,0,1.9,1.9,0,0,1,.4,3.75l-23.25,12.26a43,43,0,0,1-28.13.36L475.4,502.61A1.9,1.9,0,0,1,475.75,498.85Z" transform="translate(111.74 -89.13)"/><path class="cls-13" d="M397.43,407.89c0,.34-.06.68-.1,1-.07.68-.13,1.39-.2,2.11-.78,8.17-1.72,18.72-2.42,28.82,0,.44-.07.88-.09,1.31-.3,4.43-.55,8.75-.71,12.72,0,.08,0,.16,0,.23-.39,9.7-.5,16.39-.4,19,0,0,.75.07-.1,0-3.83-.48-14.31-3.28-13.06-19.36,1.77-22.56-2.85-36.11-3-44.66a17.92,17.92,0,0,1,.12-2.48,9,9,0,0,1,4.05-6.84c4.66-3.22,8.74-1,11.77,2.25.28.29.55.61.81.93a30.3,30.3,0,0,1,3,4.42Z" transform="translate(111.74 -89.13)"/><path class="cls-13" d="M648.66,453.32c1.4,18-16.25,19.82-19.2,20,1.9-13.75,2.69-42.32,2.95-55.45a33.37,33.37,0,0,0-2.56-13.51l0-.12a25.81,25.81,0,0,1,3.76-3.54c3.4-2.57,7.45-3.9,11.48-1.1a10.34,10.34,0,0,1,4.49,7C651.12,414.89,646.72,428.65,648.66,453.32Z" transform="translate(111.74 -89.13)"/><path class="cls-16" d="M412.79,690.68s37,.82,60.18,64.33C493.85,812.26,484.9,895.8,484.9,895.8l15.1-8.71s3.7-93.55,0-120.38c-1.49-10.82-19-67.53-30.93-81.58s-40.58-30.55-40.58-30.55Z" transform="translate(111.74 -89.13)"/><path class="cls-17" d="M168,773.36s30.72-81.79,59.77-109.3c15.53-14.72,168.15-76.44,168.15-76.44s-129.63,59-163.52,81.73C220.26,677.49,168,773.36,168,773.36Z" transform="translate(111.74 -89.13)"/><path class="cls-16" d="M623.37,690.22s-37,.82-60.19,64.33c-20.88,57.25-11.93,140.79-11.93,140.79l-15.1-8.71s-3.56-95.16,0-120.38c1.53-10.81,19-67.53,30.94-81.57s40.57-30.56,40.57-30.56Z" transform="translate(111.74 -89.13)"/><path class="cls-17" d="M868.15,772.9s-30.73-81.79-59.77-109.3c-15.53-14.71-168.16-76.43-168.16-76.43s129.63,59,163.52,81.72C815.9,677,868.15,772.9,868.15,772.9Z" transform="translate(111.74 -89.13)"/><path class="cls-15" d="M462.17,677.43c-3.07-3-16.59-15.84-22.67-11.39-6.53,4.8-38.31,31.1-36.37,43.16-4.3-13.15-29.33-95.64,5.42-133.44l.36-.39c6.47-7.12,15.1-19.37,15.44-19.84h0s28,107.31,32.79,115.57A33.17,33.17,0,0,0,462.17,677.43Z" transform="translate(111.74 -89.13)"/><path class="cls-15" d="M574.46,677.43c3.07-3,16.59-15.84,22.67-11.39,6.53,4.8,38.31,31.1,36.37,43.16,4.3-13.15,29.33-95.64-5.42-133.44l-.36-.39c-6.47-7.12-15.1-19.37-15.44-19.84h0s-28,107.31-32.79,115.57A33.17,33.17,0,0,1,574.46,677.43Z" transform="translate(111.74 -89.13)"/></g><path class="cls-18" d="M537,221.2" transform="translate(111.74 -89.13)"/></svg>