<svg id="Layer_1" data-name="Layer 1" xmlns="http://www.w3.org/2000/svg" viewBox="0 0 619.37 596.5"><defs><style>.cls-1{fill:#fff;}</style></defs><title>vito ananda logo white</title><path class="cls-1" d="M557,182.51l-65,187-2.1,6.3,54.5,135.9-92-28.2-29.3,84.4,294.2,122.2Z" transform="translate(-137.94 -133.6)"/><path class="cls-1" d="M545.83,173.51,429.23,232l-75.6,214.4-96.2-128.9-79.5,41.7L368.13,685Z" transform="translate(-137.94 -133.6)"/><path class="cls-1" d="M557,182.5l-65,187-2.1,6.3,54.5,135.9-92-28.2-29.3,84.4,294.2,122.2Z" transform="translate(-137.94 -133.6)"/><polygon class="cls-1" points="372.36 346.72 327.27 332.9 345.63 280.07 372.36 346.72"/><polygon class="cls-1" points="407.89 39.9 230.19 551.4 39.99 225.6 119.49 183.9 215.69 312.8 291.29 98.4 407.89 39.9"/><polygon class="cls-1" points="419.09 48.9 579.39 556.5 285.19 434.3 314.49 349.9 406.49 378.1 351.99 242.2 354.09 235.9 419.09 48.9"/><path class="cls-1" d="M755.47,678.06,595.17,170.45a39.35,39.35,0,0,0-1.27-4.3l-.5-1.4c-.18-.51-.35-1-.5-1.45-3.74-10.81-8.44-17.72-23.6-25.24a19.5,19.5,0,0,0-2.73-1.17,53.77,53.77,0,0,0-18.64-3.29c-7.36,0-14.85,1.55-20,4.15l-116.6,58.5a39.82,39.82,0,0,0-19.78,22.45L340.84,362.39l-51.35-68.81a40,40,0,0,0-50.64-11.5l-79.5,41.7a40,40,0,0,0-16,55.59l190.19,325.8A40.13,40.13,0,0,0,368.12,725c1.28,0,2.58-.06,3.89-.18a40.1,40.1,0,0,0,33.9-26.69l28.56-82.2L702,727a40,40,0,0,0,42.35-7.44A40.11,40.11,0,0,0,755.47,678.06Zm-24.63,26.79a20,20,0,0,1-21.18,3.72L422.55,589.32,387,691.57a20,20,0,0,1-16.95,13.34q-1,.09-1.95.09a20,20,0,0,1-17.26-9.91l-190.2-325.8a20,20,0,0,1,8-27.8l79.5-41.7a20,20,0,0,1,25.32,5.75l73.78,98.86,63.13-179a20,20,0,0,1,9.89-11.22l116.6-58.5c2.84-1.43,12.65-3.84,23.2.17,11.93,5.85,12,8.77,14.51,15.68l.5,1.4a19.85,19.85,0,0,1,.79,2.88q.14.36.24.72l160.3,507.6A20,20,0,0,1,730.84,704.85Z" transform="translate(-137.94 -133.6)"/><path class="cls-1" d="M557,182.5l-65,187-2.1,6.3,54.5,135.9-92-28.2-29.3,84.4,294.2,122.2ZM429.23,232l-75.6,214.4-96.2-128.9-79.5,41.7L368.13,685l177.7-511.5Z" transform="translate(-137.94 -133.6)"/><polygon class="cls-1" points="407.89 39.9 230.19 551.4 39.99 225.6 119.49 183.9 215.69 312.8 291.29 98.4 407.89 39.9"/></svg>